<svg width="107" height="78" viewBox="0 0 107 78" fill="none" xmlns="http://www.w3.org/2000/svg">
<path d="M4.05483 17.872L19.2917 17.6918L32.5897 49.0566L33.1862 49.0495L45.7387 17.379L60.9756 17.1988L61.5776 68.1043L49.5969 68.246L49.2271 36.9769L48.8046 36.9819L36.9413 68.0725L29.2856 68.163L16.6883 37.1877L16.2657 37.1927L16.6376 68.6358L4.65689 68.7775L4.05483 17.872Z" fill="#252525"/>
<rect x="21" y="59" width="44" height="15" fill="white"/>
<rect x="47" y="46" width="18" height="28" fill="white"/>
<path d="M52.7727 60.2727C52.7045 59.697 52.428 59.25 51.9432 58.9318C51.4583 58.6137 50.8636 58.4546 50.1591 58.4546C49.6439 58.4546 49.1932 58.5379 48.8068 58.7046C48.4242 58.8712 48.125 59.1004 47.9091 59.3921C47.697 59.6837 47.5909 60.0152 47.5909 60.3864C47.5909 60.697 47.6648 60.964 47.8125 61.1875C47.964 61.4072 48.1572 61.5909 48.392 61.7387C48.6269 61.8826 48.8731 62.0019 49.1307 62.0966C49.3883 62.1875 49.625 62.2614 49.8409 62.3182L51.0227 62.6364C51.3258 62.7159 51.6629 62.8258 52.0341 62.9659C52.4091 63.1061 52.767 63.2974 53.108 63.5398C53.4527 63.7784 53.7367 64.0852 53.9602 64.4602C54.1837 64.8352 54.2955 65.2955 54.2955 65.8409C54.2955 66.4697 54.1307 67.0379 53.8011 67.5455C53.4754 68.053 52.9981 68.4565 52.3693 68.7557C51.7443 69.0549 50.9848 69.2046 50.0909 69.2046C49.2576 69.2046 48.536 69.0701 47.9261 68.8012C47.3201 68.5322 46.8428 68.1572 46.4943 67.6762C46.1496 67.1951 45.9545 66.6364 45.9091 66H47.3636C47.4015 66.4394 47.5492 66.803 47.8068 67.0909C48.0682 67.375 48.3977 67.5871 48.7955 67.7273C49.197 67.8637 49.6288 67.9318 50.0909 67.9318C50.6288 67.9318 51.1117 67.8447 51.5398 67.6705C51.9678 67.4924 52.3068 67.2462 52.5568 66.9318C52.8068 66.6137 52.9318 66.2424 52.9318 65.8182C52.9318 65.4318 52.8239 65.1174 52.608 64.875C52.392 64.6326 52.108 64.4356 51.7557 64.2841C51.4034 64.1326 51.0227 64 50.6136 63.8864L49.1818 63.4773C48.2727 63.2159 47.553 62.8428 47.0227 62.358C46.4924 61.8731 46.2273 61.2387 46.2273 60.4546C46.2273 59.803 46.4034 59.2349 46.7557 58.75C47.1117 58.2614 47.589 57.8826 48.1875 57.6137C48.7898 57.3409 49.4621 57.2046 50.2045 57.2046C50.9545 57.2046 51.6212 57.339 52.2045 57.608C52.7879 57.8731 53.25 58.2368 53.5909 58.6989C53.9356 59.161 54.1174 59.6856 54.1364 60.2727H52.7727ZM55.9759 58.6137V57.3637H64.7031V58.6137H61.044V69H59.6349V58.6137H55.9759ZM76.2116 63.1818C76.2116 64.4091 75.9901 65.4697 75.5469 66.3637C75.1037 67.2576 74.4957 67.947 73.723 68.4318C72.9503 68.9167 72.0677 69.1591 71.0753 69.1591C70.0829 69.1591 69.2003 68.9167 68.4276 68.4318C67.6548 67.947 67.0469 67.2576 66.6037 66.3637C66.1605 65.4697 65.9389 64.4091 65.9389 63.1818C65.9389 61.9546 66.1605 60.894 66.6037 60C67.0469 59.1061 67.6548 58.4167 68.4276 57.9318C69.2003 57.447 70.0829 57.2046 71.0753 57.2046C72.0677 57.2046 72.9503 57.447 73.723 57.9318C74.4957 58.4167 75.1037 59.1061 75.5469 60C75.9901 60.894 76.2116 61.9546 76.2116 63.1818ZM74.848 63.1818C74.848 62.1743 74.6795 61.3239 74.3423 60.6307C74.009 59.9375 73.5563 59.4129 72.9844 59.0568C72.4162 58.7008 71.7798 58.5227 71.0753 58.5227C70.3707 58.5227 69.7325 58.7008 69.1605 59.0568C68.5923 59.4129 68.1397 59.9375 67.8026 60.6307C67.4692 61.3239 67.3026 62.1743 67.3026 63.1818C67.3026 64.1894 67.4692 65.0398 67.8026 65.733C68.1397 66.4262 68.5923 66.9508 69.1605 67.3068C69.7325 67.6629 70.3707 67.8409 71.0753 67.8409C71.7798 67.8409 72.4162 67.6629 72.9844 67.3068C73.5563 66.9508 74.009 66.4262 74.3423 65.733C74.6795 65.0398 74.848 64.1894 74.848 63.1818ZM78.581 69V57.3637H82.5128C83.4219 57.3637 84.1681 57.519 84.7514 57.8296C85.3348 58.1364 85.7666 58.5587 86.0469 59.0966C86.3272 59.6345 86.4673 60.2462 86.4673 60.9318C86.4673 61.6174 86.3272 62.2254 86.0469 62.7557C85.7666 63.286 85.3366 63.7027 84.7571 64.0057C84.1776 64.3049 83.437 64.4546 82.5355 64.4546H79.3537V63.1818H82.4901C83.1113 63.1818 83.6113 63.0909 83.9901 62.9091C84.3726 62.7273 84.6491 62.4697 84.8196 62.1364C84.9938 61.7993 85.081 61.3977 85.081 60.9318C85.081 60.4659 84.9938 60.0587 84.8196 59.7102C84.6454 59.3618 84.367 59.0928 83.9844 58.9034C83.6018 58.7102 83.0961 58.6137 82.4673 58.6137H79.9901V69H78.581ZM84.0582 63.7727L86.9219 69H85.2855L82.4673 63.7727H84.0582ZM88.8153 69V57.3637H95.8381V58.6137H90.2244V62.5455H95.4744V63.7955H90.2244V67.75H95.929V69H88.8153Z" fill="black"/>
</svg>
